<?xml version="1.0" encoding="utf-8"?>
<!-- Generator: Adobe Illustrator 21.0.0, SVG Export Plug-In . SVG Version: 6.00 Build 0)  -->
<svg version="1.1" id="Layer_1" xmlns="http://www.w3.org/2000/svg" xmlns:xlink="http://www.w3.org/1999/xlink" x="0px" y="0px"
	 viewBox="0 0 522 520" style="enable-background:new 0 0 522 520;" xml:space="preserve">
<style type="text/css">
	.st0{opacity:0.75;fill:#BFDFE8;}
	.st1{fill:#DFEEF2;}
	.st2{fill:#1C82C4;}
	.st3{fill:url(#XMLID_3_);}
	.st4{fill:#236EDB;}
	.st5{fill:#29EDCC;}
	.st6{fill:#FFFFFF;}
	.st7{fill:#023C59;}
	.st8{clip-path:url(#XMLID_4_);fill:#D97C8F;}
	.st9{fill:#6DD6F2;}
</style>
<g id="XMLID_596_">
	<path id="XMLID_112_" class="st0" d="M254.2,482.3L254.2,482.3L254.2,482.3L254.2,482.3L254.2,482.3L254.2,482.3z M248.9,476.9
		c0-3,2.4-5.4,5.4-5.4l0,0c3,0,5.4,2.4,5.4,5.4l0,0c0,3-2.4,5.4-5.4,5.4l0,0C251.3,482.3,248.9,479.9,248.9,476.9z M184.2,471.3
		c-2.8-0.9-4.4-3.9-3.5-6.8l0,0c0.9-2.8,3.9-4.4,6.7-3.5l0,0c2.8,0.9,4.4,3.9,3.5,6.7l0,0c-0.7,2.3-2.8,3.7-5.1,3.7l0,0
		C185.4,471.6,184.8,471.5,184.2,471.3z M317.5,467.8c-0.9-2.8,0.6-5.8,3.4-6.8l0,0c2.8-0.9,5.9,0.6,6.8,3.5l0,0
		c0.9,2.8-0.6,5.8-3.5,6.8l0,0c-0.6,0.2-1.1,0.3-1.7,0.3l0,0C320.3,471.5,318.2,470.1,317.5,467.8z M121.1,439.1
		c-2.4-1.7-2.9-5.1-1.2-7.5l0,0c1.7-2.4,5.1-2.9,7.5-1.2l0,0c2.4,1.7,2.9,5.1,1.2,7.5l0,0c-1,1.4-2.7,2.2-4.3,2.2l0,0
		C123.2,440.2,122.1,439.8,121.1,439.1z M379.8,437.8c-1.7-2.4-1.2-5.8,1.2-7.5l0,0c2.4-1.7,5.8-1.2,7.5,1.2l0,0
		c1.7,2.4,1.2,5.8-1.2,7.5l0,0l0,0l0,0c-1,0.7-2.1,1-3.2,1l0,0C382.5,440,380.9,439.3,379.8,437.8z M70.5,389.1
		C70.5,389.1,70.5,389.1,70.5,389.1L70.5,389.1c0-2.4-1-5.8,1.4-7.5l0,0c2.4-1.7,5.9-1.2,7.6,1.2l0,0c1.7,2.4,1.3,5.8-1.1,7.5l0,0
		c-1,0.7-2.3,1-3.4,1l0,0C73.4,391.3,74.3,390.5,70.5,389.1z M429.9,390.1c-2.4-1.7-2.9-5.1-1.2-7.5l0,0c1.7-2.4,5.1-2.9,7.5-1.2
		l0,0c2.4,1.7,2.9,5.1,1.2,7.5l0,0c-1,1.4-2.7,2.2-4.3,2.2l0,0C432,391.1,430.9,390.8,429.9,390.1z M38.7,326
		c-0.9-2.8,0.6-5.9,3.4-6.8l0,0c2.8-0.9,5.8,0.6,6.8,3.4l0,0c0.9,2.8-0.6,5.8-3.4,6.8l0,0c-0.6,0.2-1.1,0.3-1.7,0.3l0,0
		C41.5,329.7,39.4,328.3,38.7,326z M462.9,329.2c-2.8-0.9-4.4-3.9-3.4-6.8l0,0c0.9-2.8,3.9-4.4,6.8-3.5l0,0c2.8,0.9,4.4,3.9,3.5,6.8
		l0,0c-0.8,2.3-2.9,3.7-5.1,3.7l0,0C464,329.5,463.4,329.4,462.9,329.2z M27.6,256L27.6,256L27.6,256c0-3,2.4-5.4,5.4-5.4l0,0
		c3,0,5.4,2.4,5.4,5.4l0,0c0,3-2.4,5.4-5.4,5.4l0,0C30,261.4,27.6,259,27.6,256z M42,192.8c-2.8-0.9-4.4-3.9-3.5-6.7l0,0
		c0.9-2.8,3.9-4.4,6.8-3.5l0,0c2.8,0.9,4.4,3.9,3.5,6.8l0,0c-0.7,2.3-2.8,3.7-5.1,3.7l0,0C43.1,193,42.5,192.9,42,192.8z
		 M459.3,188.7L459.3,188.7c-0.9-2.8,0.6-5.8,3.4-6.8l0,0c2.8-0.9,5.8,0.6,6.8,3.4l0,0c0.9,2.8-0.6,5.8-3.4,6.8l0,0
		c-0.6,0.2-1.1,0.3-1.7,0.3l0,0C462.1,192.4,460,190.9,459.3,188.7z M71.9,130.3c-2.4-1.7-2.9-5.1-1.2-7.5l0,0
		c1.7-2.4,5.1-2.9,7.5-1.2l0,0c2.4,1.7,2.9,5.1,1.2,7.5l0,0c-1.1,1.4-2.7,2.2-4.4,2.2l0,0C73.9,131.4,72.8,131,71.9,130.3z
		 M428.5,128.6c-1.7-2.4-1.2-5.8,1.2-7.5l0,0c2.4-1.7,5.8-1.2,7.5,1.2l0,0c1.7,2.4,1.2,5.8-1.2,7.5l0,0c-1,0.7-2.1,1-3.2,1l0,0
		C431.2,130.8,429.5,130.1,428.5,128.6z M119.6,80.2c-1.7-2.4-1.2-5.8,1.2-7.5l0,0c2.4-1.7,5.8-1.2,7.5,1.2l0,0
		c1.7,2.4,1.2,5.8-1.2,7.5l0,0c-1,0.7-2.1,1-3.2,1l0,0C122.2,82.4,120.6,81.6,119.6,80.2z M380.7,81c-2.4-1.7-2.9-5.1-1.2-7.5l0,0
		c1.7-2.4,5.1-2.9,7.5-1.2l0,0c2.4,1.7,2.9,5.1,1.2,7.5l0,0c-1.1,1.5-2.7,2.2-4.4,2.2l0,0C382.7,82,381.6,81.6,380.7,81z
		 M180.4,47.1c-0.9-2.8,0.6-5.8,3.4-6.8l0,0c2.8-0.9,5.9,0.6,6.8,3.4l0,0c0.9,2.8-0.6,5.8-3.5,6.8l0,0c-0.6,0.2-1.1,0.3-1.7,0.3l0,0
		C183.2,50.8,181.1,49.4,180.4,47.1z M320.5,50.4c-2.8-0.9-4.4-3.9-3.5-6.8l0,0c0.9-2.8,3.9-4.4,6.8-3.5l0,0
		c2.8,0.9,4.4,3.9,3.5,6.7l0,0c-0.7,2.3-2.8,3.7-5.1,3.7l0,0C321.6,50.6,321,50.5,320.5,50.4z M248.4,34.6c0-3,2.4-5.4,5.4-5.4l0,0
		c3,0,5.4,2.4,5.4,5.4l0,0c0,3-2.4,5.4-5.4,5.4l0,0C250.8,40,248.4,37.6,248.4,34.6z"/>
	<path class="st1" d="M123.9,37.7c-7.6,0-13.8-6.2-13.8-13.8s6.2-13.8,13.8-13.8s13.8,6.2,13.8,13.8S131.5,37.7,123.9,37.7z
		 M123.9,16.3c-4.2,0-7.6,3.4-7.6,7.6s3.4,7.6,7.6,7.6c4.2,0,7.6-3.4,7.6-7.6S128.1,16.3,123.9,16.3z"/>
	<path class="st1" d="M384.2,507.7c-7.6,0-13.8-6.2-13.8-13.8s6.2-13.8,13.8-13.8c7.6,0,13.8,6.2,13.8,13.8S391.8,507.7,384.2,507.7
		z M384.2,486.3c-4.2,0-7.6,3.4-7.6,7.6s3.4,7.6,7.6,7.6s7.6-3.4,7.6-7.6S388.4,486.3,384.2,486.3z"/>
	<g id="XMLID_99_">
		<path class="st1" d="M433.1,394.2c-4.6,0-8.4-3.8-8.4-8.4c0-4.6,3.8-8.4,8.4-8.4c4.6,0,8.4,3.8,8.4,8.4
			C441.5,390.4,437.7,394.2,433.1,394.2z M433.1,383.5c-1.3,0-2.3,1-2.3,2.3c0,1.3,1,2.3,2.3,2.3c1.3,0,2.3-1,2.3-2.3
			C435.4,384.5,434.3,383.5,433.1,383.5z"/>
		<path class="st1" d="M185.9,474.6c-4.6,0-8.4-3.8-8.4-8.4s3.8-8.4,8.4-8.4s8.4,3.8,8.4,8.4S190.5,474.6,185.9,474.6z M185.9,463.9
			c-1.3,0-2.3,1-2.3,2.3s1,2.3,2.3,2.3c1.3,0,2.3-1,2.3-2.3S187.1,463.9,185.9,463.9z"/>
		<path class="st2" d="M124.2,85.4c-4.6,0-8.4-3.8-8.4-8.4c0-4.6,3.8-8.4,8.4-8.4c4.6,0,8.4,3.8,8.4,8.4
			C132.7,81.7,128.9,85.4,124.2,85.4z M124.2,74.7c-1.3,0-2.3,1-2.3,2.3c0,1.3,1,2.3,2.3,2.3c1.3,0,2.3-1,2.3-2.3
			C126.5,75.7,125.5,74.7,124.2,74.7z"/>
		<circle id="XMLID_801_" class="st1" cx="432.8" cy="125.5" r="5.4"/>
	</g>
	
		<linearGradient id="XMLID_3_" gradientUnits="userSpaceOnUse" x1="-419.4611" y1="-2784.1372" x2="-419.4611" y2="-2552.5757" gradientTransform="matrix(-1 0 0 -1 -165.3333 -2437.5388)">
		<stop  offset="0" style="stop-color:#C9EAF5"/>
		<stop  offset="1" style="stop-color:#FFFFFF;stop-opacity:0"/>
	</linearGradient>
	<circle id="XMLID_98_" class="st3" cx="254.1" cy="257.3" r="152.3"/>
	<path id="XMLID_96_" class="st4" d="M2.8,238.1c0,0,18.5-2.7,32.6-17.9c20.4,19.3,33.2,18.2,33.2,18.2s-2.7,42.1-32.9,54.3
		C1.9,281,2.8,238.1,2.8,238.1z"/>
	<path id="XMLID_95_" class="st5" d="M256.3,437.1l-26.5,44.3c-0.6,1,0.1,2.3,1.3,2.3h18.4c1,0,1.7,0.9,1.5,1.8l-5.3,28
		c-0.3,1.6,1.9,2.5,2.8,1.1l27.8-44.2c0.6-1-0.1-2.3-1.3-2.3h-17.9c-0.9,0-1.6-0.8-1.5-1.7l3.6-28.3
		C259.4,436.4,257.2,435.7,256.3,437.1z"/>
	<g id="XMLID_90_">
		<path class="st4" d="M507.5,261.1c-1.7,0-3.1-1.4-3.1-3.1c0-18-13.4-32.7-29.9-32.7c-8.3,0-16.3,3.8-21.9,10.5
			c-1.1,1.3-3,1.4-4.3,0.4c-1.3-1.1-1.5-3-0.4-4.3c6.8-8,16.5-12.6,26.6-12.6c19.9,0,36,17.4,36,38.8
			C510.6,259.7,509.2,261.1,507.5,261.1z"/>
		<path class="st4" d="M475.9,294.2c-19.9,0-36-17.4-36-38.8c0-1.7,1.4-3.1,3.1-3.1c1.7,0,3.1,1.4,3.1,3.1c0,18,13.4,32.7,29.9,32.7
			c8.3,0,16.3-3.8,21.9-10.5c1.1-1.3,3-1.4,4.3-0.4c1.3,1.1,1.5,3,0.4,4.3C495.7,289.6,486,294.2,475.9,294.2z"/>
		<path class="st4" d="M507.7,265.5l-10.3-9.1c-1.3-1.1-1.4-3.1-0.3-4.3c1.1-1.3,3.1-1.4,4.3-0.3l5.9,5.2l5.1-5.3
			c1.2-1.2,3.1-1.3,4.3-0.1c1.2,1.2,1.3,3.1,0.1,4.3L507.7,265.5z"/>
		<path class="st4" d="M434.9,264.3c-0.8,0-1.5-0.3-2.1-0.9c-1.2-1.2-1.3-3.1-0.1-4.3l10.2-10.6l10.4,10.6c1.2,1.2,1.2,3.2,0,4.3
			c-1.2,1.2-3.2,1.2-4.3,0l-6-6.1l-5.9,6.1C436.5,264,435.7,264.3,434.9,264.3z"/>
	</g>
	<g id="XMLID_46_">
		<g>
			<path id="XMLID_42_" class="st6" d="M147.6,391h212.7c1.1,0,2-0.9,2-2V119.3c0-1.1-0.9-2-2-2H147.6c-1.1,0-2,0.9-2,2V389
				C145.6,390.1,146.5,391,147.6,391z"/>
			<path class="st4" d="M354.6,394H153.2c-5.9,0-10.7-4.8-10.7-10.7V125c0-5.9,4.8-10.7,10.7-10.7h201.4c5.9,0,10.7,4.8,10.7,10.7
				v258.3C365.3,389.2,360.5,394,354.6,394z M153.2,120.4c-2.5,0-4.6,2.1-4.6,4.6v258.3c0,2.5,2.1,4.6,4.6,4.6h201.4
				c2.5,0,4.6-2.1,4.6-4.6V125c0-2.5-2.1-4.6-4.6-4.6H153.2z"/>
		</g>
		<g id="XMLID_79_">
			<path class="st7" d="M220.8,211.7c-0.1,0-0.2,0-0.3,0c-1.5-0.2-2.5-1.5-2.3-3c0.7-5.9,5.7-10.4,11.7-10.4
				c5.9,0,10.9,4.4,11.7,10.3c0.2,1.5-0.8,2.8-2.3,3c-1.4,0.2-2.8-0.8-3-2.3c-0.4-3.2-3.2-5.6-6.4-5.6c-3.3,0-6,2.4-6.4,5.7
				C223.3,210.7,222.2,211.7,220.8,211.7z"/>
			<path class="st7" d="M265.3,211.7c-0.1,0-0.2,0-0.3,0c-1.5-0.2-2.5-1.5-2.3-3c0.7-5.9,5.7-10.4,11.7-10.4
				c5.9,0,10.9,4.4,11.7,10.3c0.2,1.5-0.8,2.8-2.3,3c-1.5,0.2-2.8-0.8-3-2.3c-0.4-3.2-3.2-5.6-6.4-5.6c-3.3,0-6,2.4-6.4,5.7
				C267.8,210.7,266.6,211.7,265.3,211.7z"/>
			<path id="XMLID_86_" class="st7" d="M270,221.4c4.2,0,7.2,4.1,5.9,8.1c-3.4,9.8-12.7,17-23.7,17c-11,0-20.3-7.1-23.7-17
				c-1.4-4,1.7-8.1,5.9-8.1H270z"/>
			<path id="XMLID_85_" class="st7" d="M270,221.4c4.2,0,7.2,4.6,5.9,9c-3.4,10.9-12.7,18.8-23.7,18.8c-11,0-20.3-7.9-23.7-18.8
				c-1.4-4.4,1.7-9,5.9-9H270z"/>
			<g id="XMLID_80_">
				<defs>
					<path id="XMLID_81_" d="M268.2,219.9c3.8,0,6.5,4.1,5.3,8.1c-3,9.8-11.5,17-21.4,17c-9.9,0-18.3-7.1-21.4-17
						c-1.2-4,1.5-8.1,5.3-8.1H268.2z"/>
				</defs>
				<clipPath id="XMLID_4_">
					<use xlink:href="#XMLID_81_"  style="overflow:visible;"/>
				</clipPath>
				<ellipse id="XMLID_82_" class="st8" cx="251.9" cy="246" rx="13.2" ry="12.7"/>
			</g>
		</g>
		<path class="st4" d="M361.8,152.2H164c-1.7,0-3.1-1.4-3.1-3.1s1.4-3.1,3.1-3.1h197.8c1.7,0,3.1,1.4,3.1,3.1
			S363.5,152.2,361.8,152.2z"/>
		<circle id="XMLID_77_" class="st4" cx="164.5" cy="133.7" r="4.1"/>
		<circle id="XMLID_76_" class="st4" cx="179.8" cy="133.7" r="4.1"/>
		<circle id="XMLID_75_" class="st4" cx="195.1" cy="133.7" r="4.1"/>
		<path class="st1" d="M242.2,299h-73.6c-1.5,0-2.7-1.2-2.7-2.7s1.2-2.7,2.7-2.7h73.6c1.5,0,2.7,1.2,2.7,2.7S243.6,299,242.2,299z"
			/>
		<path class="st1" d="M337.2,299h-73.6c-1.5,0-2.7-1.2-2.7-2.7s1.2-2.7,2.7-2.7h73.6c1.5,0,2.7,1.2,2.7,2.7S338.7,299,337.2,299z"
			/>
		<path class="st1" d="M242.2,317.4h-73.6c-1.5,0-2.7-1.2-2.7-2.7c0-1.5,1.2-2.7,2.7-2.7h73.6c1.5,0,2.7,1.2,2.7,2.7
			C244.9,316.2,243.6,317.4,242.2,317.4z"/>
		<path class="st1" d="M337.2,317.4h-73.6c-1.5,0-2.7-1.2-2.7-2.7c0-1.5,1.2-2.7,2.7-2.7h73.6c1.5,0,2.7,1.2,2.7,2.7
			C339.9,316.2,338.7,317.4,337.2,317.4z"/>
		<path class="st1" d="M242.2,337.3h-73.6c-1.5,0-2.7-1.2-2.7-2.7c0-1.5,1.2-2.7,2.7-2.7h73.6c1.5,0,2.7,1.2,2.7,2.7
			C244.9,336.1,243.6,337.3,242.2,337.3z"/>
		<path class="st1" d="M337.2,337.3h-73.6c-1.5,0-2.7-1.2-2.7-2.7c0-1.5,1.2-2.7,2.7-2.7h73.6c1.5,0,2.7,1.2,2.7,2.7
			C339.9,336.1,338.7,337.3,337.2,337.3z"/>
		<path id="XMLID_47_" class="st5" d="M276.8,364.2h-47.7c-0.8,0-1.5-0.7-1.5-1.5v-8.3c0-0.8,0.7-1.5,1.5-1.5h47.7
			c0.8,0,1.5,0.7,1.5,1.5v8.3C278.2,363.5,277.5,364.2,276.8,364.2z"/>
	</g>
	<g id="XMLID_622_">
		<path id="XMLID_623_" class="st9" d="M230.5,31.5c-2.7-1.5-5.6-1.8-8.6-1.7c-4,0.2-7.7,1.3-10.6,4.3c-2.9,2.9-4.3,6.5-4.6,10.5
			c-0.5,5.9,1,11.2,5.7,15.2c3.2,2.7,7,3.5,11.1,3.5c21.1,0,42.1,0,63.2,0c0.4,0,0.8,0,1.3,0c5.4-0.2,9.6-3.2,11.4-8
			c1-2.7,1.1-5.5,0.7-8.3c-0.7-5.2-3.9-8.9-9-9.9c-2-0.4-4-0.4-6-0.5c-3.6-0.2-5.2-1.7-5.5-5.3c-0.1-1.9-0.3-3.9-0.6-5.8
			c-1.5-8.3-5.9-14.5-14-17.6c-5-1.9-10.2-2.1-15.4-1.4c-9.4,1.3-18.1,11-19,17.7C229.7,27.7,230.5,31.5,230.5,31.5z"/>
	</g>
</g>
</svg>
