<?xml version="1.0" encoding="utf-8"?>
<!-- Generator: Adobe Illustrator 21.0.0, SVG Export Plug-In . SVG Version: 6.00 Build 0)  -->
<svg version="1.1" id="Layer_1" xmlns="http://www.w3.org/2000/svg" xmlns:xlink="http://www.w3.org/1999/xlink" x="0px" y="0px"
	 viewBox="0 0 269 53.5" style="enable-background:new 0 0 269 53.5;" xml:space="preserve">
<style type="text/css">
	.st0{fill:#226DDB;}
	.st1{fill:#DEDEDE;}
	.st2{fill:#FFFFFF;}
</style>
<g>
	<polygon id="XMLID_200_" class="st1" points="40.9,33.8 27.8,33.8 5.3,4.8 18.4,4.8 	"/>
	<polygon id="XMLID_196_" class="st1" points="63.4,33.8 63.4,50.6 27.8,4.8 40.9,4.8 	"/>
	<rect id="XMLID_199_" x="27.8" y="4.8" class="st2" width="13.2" height="29"/>
	<rect id="XMLID_201_" x="5.3" y="4.8" class="st2" width="13.2" height="29"/>
	<polygon id="XMLID_195_" class="st2" points="63.4,21.7 50.2,4.8 63.4,4.8 	"/>
	<g id="XMLID_41_">
		<path id="XMLID_117_" class="st2" d="M99.1,11.8c-1.9,0-4.4,1.1-6,2.9c-1.5-1.9-3.5-2.9-5.9-2.9c-2.1,0-3.9,0.9-5.3,2.4
			c-0.2-1.3-1.1-2.1-2.6-2.1c-1.7,0-2.8,1.3-2.8,3.2v15.2c0,1.9,1.2,3.2,2.8,3.2s2.8-1.3,2.8-3.2v-9.9c0-2.3,1-3.9,3.3-3.9
			c2,0,3.3,1.6,3.3,3.9v9.9c0,1.9,1.2,3.2,2.8,3.2c1.6,0,2.8-1.3,2.8-3.2v-9.9c0-2.3,1.3-3.9,3.3-3.9c2,0,3.3,1.6,3.3,3.9v9.9
			c0,1.9,1.2,3.2,2.8,3.2c1.7,0,2.8-1.3,2.8-3.2V19.5C106.8,14.5,103.7,11.8,99.1,11.8z"/>
		<path id="XMLID_25_" class="st2" d="M128.6,22.2c0-4.7-4-10.4-10.2-10.4c-6,0-10.1,5.3-10.1,11c0,6.3,4.2,10.9,10.6,10.9
			c4.2,0,9.2-2.4,9.2-4.8c0-1.2-1.1-2.5-2.3-2.5c-1.5,0-3.5,2.3-6.4,2.3c-2.6,0-5-1.3-5.3-4.1h12.1
			C127.9,24.7,128.6,23.9,128.6,22.2z M114,20.9c0.3-2.4,2-4.3,4.5-4.3c2.6,0,4.2,1.9,4.5,4.3H114z"/>
		<path id="XMLID_148_" class="st2" d="M147.1,2.9c-1.7,0-2.8,1.3-2.8,3.2v7.7c-1.5-1.3-3.4-2-5.4-2c-6.1,0-9.1,5.7-9.1,11.3
			c0,5.4,3.6,10.7,9.3,10.7c1.9,0,4.1-0.9,5.2-2.6c0.4,1.5,1.3,2.4,2.8,2.4c1.7,0,2.8-1.3,2.8-3.2V6C150,4.1,148.8,2.9,147.1,2.9z
			 M139.9,28.6c-2.9,0-4.4-3.1-4.4-5.7c0-2.7,1.5-5.8,4.4-5.8c3,0,4.4,2.8,4.4,5.6S143,28.6,139.9,28.6z"/>
		<path id="XMLID_149_" class="st2" d="M155.5,12c-1.7,0-2.8,1.3-2.8,3.2v15.2c0,1.9,1.2,3.2,2.8,3.2s2.8-1.3,2.8-3.2V15.2
			C158.3,13.3,157.1,12,155.5,12z"/>
		<path id="XMLID_24_" class="st2" d="M155.5,3.5c-1.7,0-3.2,1.5-3.2,3.1c0,1.7,1.5,3.3,3.2,3.3c1.8,0,3.2-1.5,3.2-3.3
			C158.7,5,157.2,3.5,155.5,3.5z"/>
		<path id="XMLID_13_" class="st2" d="M177.7,12c-1.4,0-2.6,1-2.7,2.4c-1.3-1.8-3.3-2.6-5.4-2.6c-5.2,0-9.4,4.8-9.4,11
			c0,6.4,4,10.9,9.4,10.9c2.2,0,3.9-0.9,5.4-2.6c0.4,1.5,1.1,2.4,2.7,2.4c2.7,0,2.7-2.3,2.7-3.7V15.8C180.4,14.3,180.4,12,177.7,12z
			 M170.4,28.6c-3.1,0-4.5-3-4.5-5.7c0-2.7,1.4-5.8,4.5-5.8c3,0,4.4,3.1,4.4,5.8C174.8,25.6,173.3,28.6,170.4,28.6z"/>
		<path id="XMLID_10_" class="st2" d="M194.2,11.8c-2.1,0-4.3,0.9-5.4,2.6c-0.4-1.5-1.3-2.4-2.8-2.4c-1.6,0-2.8,1.3-2.8,3.2v23.6
			c0,1.9,1.2,3.2,2.8,3.2c1.7,0,2.8-1.3,2.8-3.2v-7c1.5,1.3,3.4,2,5.2,2c5.7,0,9.3-5.3,9.3-10.7C203.3,17.5,200.3,11.8,194.2,11.8z
			 M193.3,28.6c-3.1,0-4.4-3.2-4.4-5.9s1.4-5.6,4.4-5.6c2.9,0,4.4,3.1,4.4,5.8C197.7,25.5,196.2,28.6,193.3,28.6z"/>
		<path id="XMLID_9_" class="st2" d="M208,2.9c-1.7,0-2.8,1.3-2.8,3.2v24.3c0,1.9,1.2,3.2,2.8,3.2s2.8-1.3,2.8-3.2V6
			C210.8,4.1,209.6,2.9,208,2.9z"/>
		<path id="XMLID_1_" class="st2" d="M230,12c-1.4,0-2.6,1-2.7,2.4c-1.3-1.8-3.3-2.6-5.4-2.6c-5.2,0-9.4,4.8-9.4,11
			c0,6.4,4,10.9,9.4,10.9c2.2,0,3.9-0.9,5.4-2.6c0.4,1.5,1.1,2.4,2.7,2.4c2.7,0,2.7-2.3,2.7-3.7V15.8C232.7,14.3,232.7,12,230,12z
			 M222.7,28.6c-3.1,0-4.5-3-4.5-5.7c0-2.7,1.4-5.8,4.5-5.8c3,0,4.4,3.1,4.4,5.8C227,25.6,225.6,28.6,222.7,28.6z"/>
		<path id="XMLID_180_" class="st2" d="M262.4,28.3h-7.5l8.9-12.6c0.4-0.6,0.6-0.9,0.6-1.7c0-1.5-1.3-1.8-1.8-1.8h-17.8l0,0l0,0
			h-1.6V8.9c0-1.9-1.2-3.2-2.8-3.2s-2.8,1.3-2.8,3.2v3.4h-1.3c-1.4,0-2.5,1.1-2.5,2.5c0,1.5,0.9,2.5,2.5,2.5h1.3v13.1
			c0,1.9,1.2,3.2,2.8,3.2s2.8-1.3,2.8-3.2V17.3h1.6l0,0l0,0h11.6l-8.9,12.6c-0.2,0.3-0.5,0.9-0.5,1.5c0,1.3,1.1,1.9,2.3,1.9h13.2
			c1.4,0,2.6-0.9,2.6-2.5C264.9,29.2,263.8,28.3,262.4,28.3z"/>
	</g>
</g>
</svg>
